#!OML:ASF E:\Steps\Project 1\Capture day 1\Session 2\Subject.ASF
:FULLY-SPECIFIED
:DEGREES
80
root -1.27843 19.6277 20.4555 -153.194 -0.385557 179.56
lowerback -27.852 -2.88279 -7.01004
upperback -0.436815 -2.07399 0.391671
thorax 14.57 -1.62144 3.41092
lowerneck -5.69819 -6.88289 0.568409
upperneck 16.5229 -9.03534 0.891291
head 5.95197 -4.05639 -0.400137
rclavicle -2.0773e-014 -1.98785e-014
rhumerus -39.2104 -17.7964 -77.5504
rradius 35.8538
rwrist -4.58036
rhand -2.96744 -56.7569
rfingers 7.12502
rthumb 22.7452 -85.4361
lclavicle -2.0773e-014 -1.98785e-014
lhumerus -32.2224 9.94707 78.0598
lradius 23.9989
lwrist -3.18286
lhand -20.6807 -11.7019
lfingers 7.12502
lthumb 5.68261 18.2019
rfemur -26.7833 6.73671 21.26
rtibia 11.1574
rfoot -19.4599 -1.93718
rtoes -24.7648
lfemur -28.8496 -9.78536 -20.6962
ltibia 17.9319
lfoot -13.4075 1.96516
ltoes -15.6081
81
root -1.28063 19.6255 20.4653 -153.219 -0.234946 179.671
lowerback -27.7039 -2.86596 -6.97602
upperback -0.421787 -2.06796 0.390159
thorax 14.5162 -1.61325 3.39832
lowerneck -6.1537 -6.92895 0.586231
upperneck 17.3149 -9.04966 0.64127
head 6.26758 -4.04679 -0.51383
rclavicle -5.1684e-015 -1.98785e-014
rhumerus -39.0664 -17.6224 -77.7601
rradius 35.9289
rwrist -4.7744
rhand -2.77339 -58.1622
rfingers 7.12502
rthumb 22.9314 -86.8185
lclavicle -5.1684e-015 -1.98785e-014
lhumerus -32.1486 9.85482 78.0512
lradius 23.984
lwrist -3.09141
lhand -20.8363 -11.8371
lfingers 7.12502
lthumb 5.53237 18.0707
rfemur -27.1337 7.05762 21.2891
rtibia 11.8014
rfoot -19.7062 -2.13206
rtoes -24.8997
lfemur -29.0881 -9.78894 -20.5838
ltibia 18.3725
lfoot -13.5209 2.14803
ltoes -16.0765
82
root -1.28263 19.6155 20.4601 -153.244 -0.176899 179.698
lowerback -27.74 -2.93642 -7.0005
upperback -0.395699 -2.14725 0.386113
thorax 14.5732 -1.65165 3.37484
lowerneck -6.25132 -6.96201 0.428933
upperneck 17.8043 -9.06079 0.676867
head 6.44949 -4.0352 -0.491683
rclavicle -1.0635e-014 -1.59028e-015
rhumerus -39.0535 -17.4025 -77.9185
rradius 36.0854
rwrist -5.02208
rhand -2.89474 -58.8468
rfingers 7.12502
rthumb 22.815 -87.5175
lclavicle -1.0635e-014 -1.59028e-015
lhumerus -32.2432 9.83118 77.9365
lradius 24.086
lwrist -2.89364
lhand -20.8337 -11.8175
lfingers 7.12502
lthumb 5.53493 18.0902
rfemur -27.2639 7.22909 21.2996
rtibia 12.1578
rfoot -19.9374 -2.2176
rtoes -24.9585
lfemur -29.1233 -9.87065 -20.613
ltibia 18.5854
lfoot -13.6686 2.11832
ltoes -15.2181
83
root -1.31098 19.5409 20.3755 -153.946 0.711891 178.145
lowerback -28.3776 -3.7047 -8.00606
upperback 0.0935199 -1.69158 -0.200771
thorax 15.4313 -1.13484 3.53295
lowerneck -6.43135 -7.12333 0.1846
upperneck 18.3707 -9.26057 0.841103
head 6.68296 -4.10694 -0.434571
rclavicle -6.16232e-015 -2.38542e-015
rhumerus -39.0537 -17.4188 -77.9611
rradius 36.25
rwrist -4.92795
rhand -3.29539 -58.1452
rfingers 7.12502
rthumb 22.4304 -86.8628
lclavicle -6.16232e-015 -2.38542e-015
lhumerus -32.3526 9.94536 77.784
lradius 24.1764
lwrist -2.94742
lhand -20.7747 -11.6515
lfingers 7.12502
lthumb 5.59183 18.2548
rfemur -25.86 5.49516 19.8205
rtibia 11.7577
rfoot -20.1978 -0.458883
rtoes -25.0456
lfemur -27.0716 -10.4369 -23.3556
ltibia 17.5219
lfoot -13.8013 2.15127
ltoes -13.741
84
root -1.33486 19.4702 20.3194 -157.095 3.25031 172.815
lowerback -26.234 -4.26746 -13.5258
upperback 1.04583 -0.554239 -1.85864
thorax 15.3475 -0.990545 5.13292
lowerneck -6.95345 -7.35701 -0.00779345
upperneck 19.2152 -9.56325 0.944583
head 7.06374 -4.21759 -0.432874
rclavicle 9.93923e-016 -2.14687e-014
rhumerus -38.9085 -17.6043 -77.9294
rradius 36.2881
rwrist -4.60625
rhand -3.62585 -56.2101
rfingers 7.12502
rthumb 22.1132 -84.9655
lclavicle 9.93923e-016 -2.14687e-014
lhumerus -32.2709 9.98677 77.7378
lradius 24.1841
lwrist -3.05659
lhand -20.6239 -11.4797
lfingers 7.12502
lthumb 5.73743 18.4227
rfemur -22.4078 3.22415 13.5534
rtibia 11.5948
rfoot -20.4962 1.69149
rtoes -25.2044
lfemur -22.1743 -10.7372 -31.2748
ltibia 16.047
lfoot -13.9945 2.23494
ltoes -13.399
85
root -1.37872 19.4436 20.2516 -157.027 4.11845 173.168
lowerback -27.5765 -3.88011 -12.6165
upperback 1.33172 -0.0691819 -2.02913
thorax 16.2643 -0.767212 4.63041
lowerneck -6.72345 -7.46959 0.154158
upperneck 18.7828 -9.73436 0.833066
head 6.87007 -4.32259 -0.489504
rclavicle 4.37326e-015 -4.53229e-014
rhumerus -38.7102 -17.5927 -77.9683
rradius 36.3556
rwrist -4.61319
rhand -3.49871 -55.2125
rfingers 7.12502
rthumb 22.2353 -83.9535
lclavicle 4.37326e-015 -4.53229e-014
lhumerus -32.0827 9.90611 77.7851
lradius 24.1694
lwrist -2.98389
lhand -20.4429 -11.4096
lfingers 7.12502
lthumb 5.91219 18.4879
rfemur -22.3495 2.26664 13.9369
rtibia 11.8285
rfoot -20.8151 3.76637
rtoes -24.1764
lfemur -21.3879 -10.8993 -31.5616
ltibia 15.283
lfoot -14.3526 3.2016
ltoes -13.1073
86
root -1.41412 19.4224 20.2089 -160.135 6.42704 167.905
lowerback -25.6533 -4.36182 -17.7298
upperback 2.16706 1.17349 -3.61719
thorax 16.0032 -0.48984 6.00536
lowerneck -6.47736 -7.70772 0.346458
upperneck 18.5921 -10.0746 0.770658
head 6.75351 -4.48888 -0.551029
rclavicle -1.31198e-014 6.12257e-014
rhumerus -38.6006 -17.4775 -78.1134
rradius 36.4999
rwrist -4.72966
rhand -3.11594 -55.5682
rfingers 7.12502
rthumb 22.6027 -84.2648
lclavicle -1.31198e-014 6.12257e-014
lhumerus -31.9563 9.89494 77.7488
lradius 24.1379
lwrist -3.00075
lhand -20.3536 -11.4047
lfingers 7.12502
lthumb 5.99843 18.4904
rfemur -19.6509 0.222015 7.43269
rtibia 12.1549
rfoot -21.1265 6.07744
rtoes -23.1025
lfemur -17.3942 -10.4818 -38.8897
ltibia 14.2137
lfoot -14.5235 3.32352
ltoes -12.4195
87
root -1.37301 19.4426 20.2628 -154.488 2.73656 177.611
lowerback -29.9057 -3.37026 -8.12762
upperback 0.831939 -0.938378 -0.819608
thorax 16.9281 -0.865211 3.18413
lowerneck -6.58906 -7.48756 0.0256231
upperneck 19.3441 -9.68609 0.751238
head 7.02991 -4.28412 -0.495872
rclavicle -7.35503e-015 -1.35174e-014
rhumerus -38.5885 -17.1905 -78.2943
rradius 36.6404
rwrist -4.82636
rhand -2.81191 -56.0568
rfingers 7.12502
rthumb 22.8945 -84.7177
lclavicle -7.35503e-015 -1.35174e-014
lhumerus -32.0289 9.95301 77.6049
lradius 24.1117
lwrist -3.02001
lhand -20.4286 -11.5565
lfingers 7.12502
lthumb 5.92599 18.3406
rfemur -25.5764 4.02126 19.3145
rtibia 13.3777
rfoot -21.2115 2.63179
rtoes -24.5219
lfemur -25.0872 -10.6441 -25.5452
ltibia 16.8078
lfoot -14.6343 3.41337
ltoes -12.6657
88
root -1.27364 19.5981 20.5061 -153.418 0.491619 180.116
lowerback -26.8685 -3.69248 -7.15695
upperback -0.331452 -2.24528 0.483276
thorax 14.2932 -1.32032 3.64836
lowerneck -6.44941 -7.74688 -0.28371
upperneck 19.4097 -10.0669 1.15075
head 7.06788 -4.45048 -0.34797
rclavicle 1.55052e-014 2.06736e-014
rhumerus -38.73 -16.9847 -78.3496
rradius 36.9336
rwrist -4.9682
rhand -2.73442 -55.8425
rfingers 7.12502
rthumb 22.9688 -84.4941
lclavicle 1.55052e-014 2.06736e-014
lhumerus -32.1752 9.70975 77.5819
lradius 24.1959
lwrist -2.71955
lhand -20.4727 -11.8226
lfingers 7.12502
lthumb 5.88345 18.0757
rfemur -29.1821 8.72206 21.4763
rtibia 15.8652
rfoot -21.042 -3.18111
rtoes -25.8161
lfemur -30.0906 -9.64269 -20.1532
ltibia 20.6133
lfoot -14.5313 2.54714
ltoes -13.4135
89
root -1.27328 19.5924 20.5094 -153.547 0.538084 180.126
lowerback -26.4836 -3.71403 -7.26286
upperback -0.753199 -2.27288 0.359378
thorax 14.3569 -1.35444 3.77882
lowerneck -6.17006 -7.88135 -0.605521
upperneck 19.4275 -10.2711 1.58073
head 7.06866 -4.52996 -0.167123
rclavicle 9.74045e-015 -7.95139e-016
rhumerus -39.0939 -16.9426 -78.3461
rradius 37.3226
rwrist -5.11862
rhand -2.78246 -55.4603
rfingers 7.12502
rthumb 22.9227 -84.1176
lclavicle 9.74045e-015 -7.95139e-016
lhumerus -32.4222 9.38114 77.5577
lradius 24.338
lwrist -2.60697
lhand -20.5158 -12.0356
lfingers 7.12502
lthumb 5.84184 17.8639
rfemur -29.4138 8.50724 21.5629
rtibia 16.547
rfoot -21.2687 -2.92549
rtoes -25.7988
lfemur -30.0556 -9.81112 -20.1376
ltibia 20.8048
lfoot -14.641 2.81398
ltoes -13.9638
90
root -1.27326 19.5869 20.5125 -153.576 0.620715 180.155
lowerback -26.5403 -3.77953 -7.25902
upperback -0.639742 -2.35252 0.292333
thorax 14.5309 -1.39888 3.66271
lowerneck -6.14959 -7.99573 -0.58379
upperneck 19.5228 -10.4453 1.66612
head 7.10211 -4.60078 -0.15883
rclavicle 5.96354e-016 7.95139e-016
rhumerus -38.9332 -16.744 -78.6797
rradius 37.5091
rwrist -5.38244
rhand -2.99447 -55.6164
rfingers 7.12502
rthumb 22.7193 -84.2989
lclavicle 5.96354e-016 7.95139e-016
lhumerus -32.3533 9.34146 77.4159
lradius 24.3952
lwrist -2.83748
lhand -20.6876 -11.9637
lfingers 7.12502
lthumb 5.67592 17.9403
rfemur -29.8267 8.2969 21.6564
rtibia 17.3545
rfoot -21.545 -2.71212
rtoes -25.9871
lfemur -30.1775 -9.9287 -20.1005
ltibia 21.1061
lfoot -14.8499 3.00657
ltoes -14.2884
91
root -1.27213 19.5818 20.5199 -153.539 0.690247 180.115
lowerback -26.5031 -3.92305 -7.47216
upperback -0.254671 -2.48976 0.431896
thorax 14.2427 -1.45781 3.67901
lowerneck -6.1518 -8.1445 -0.521692
upperneck 19.6771 -10.6153 1.44786
head 7.13864 -4.69171 -0.254224
rclavicle 5.76476e-015 -4.77083e-015
rhumerus -38.7431 -16.377 -78.8863
rradius 37.657
rwrist -5.6389
rhand -3.28691 -55.7593
rfingers 7.12502
rthumb 22.4386 -84.4759
lclavicle 5.76476e-015 -4.77083e-015
lhumerus -32.2955 9.40769 77.3991
lradius 24.3718
lwrist -2.92531
lhand -20.723 -11.6703
lfingers 7.12502
lthumb 5.64176 18.2346
rfemur -30.3356 8.34574 21.6082
rtibia 18.1753
rfoot -21.8571 -2.96969
rtoes -27.27
lfemur -30.4125 -9.92871 -20.1567
ltibia 21.4408
lfoot -14.9429 3.03994
ltoes -14.4919
92
root -1.27237 19.5733 20.5196 -153.589 0.826903 180.124
lowerback -26.5579 -3.97452 -7.56311
upperback -0.114649 -2.53249 0.414457
thorax 14.4383 -1.49801 3.68825
lowerneck -6.13563 -8.24487 -0.35182
upperneck 19.699 -10.726 1.16526
head 7.11764 -4.75959 -0.378179
rclavicle -1.98785e-015 3.26007e-014
rhumerus -38.5191 -16.2923 -79.063
rradius 37.7906
rwrist -5.65287
rhand -3.36528 -55.4822
rfingers 7.12502
rthumb 22.3634 -84.2078
lclavicle -1.98785e-015 3.26007e-014
lhumerus -32.0599 9.51345 77.3076
lradius 24.249
lwrist -3.08325
lhand -20.7398 -11.7099
lfingers 7.12502
lthumb 5.6256 18.1954
rfemur -30.629 8.51219 21.5848
rtibia 18.8159
rfoot -22.0982 -3.21502
rtoes -28.4291
lfemur -30.4577 -9.89472 -20.195
ltibia 21.6718
lfoot -14.9056 3.0565
ltoes -13.7471
93
root -1.26835 19.5646 20.5261 -153.564 0.897703 180.161
lowerback -26.55 -4.03817 -7.66156
upperback -0.0423764 -2.59475 0.426094
thorax 14.5302 -1.5414 3.729
lowerneck -6.36715 -8.36426 -0.152332
upperneck 20.1517 -10.8191 0.682393
head 7.26602 -4.81217 -0.588792
rclavicle -1.63003e-014 -3.81667e-014
rhumerus -38.3255 -16.2365 -79.149
rradius 37.8603
rwrist -5.67568
rhand -3.26221 -54.9656
rfingers 7.12502
rthumb 22.4623 -83.6793
lclavicle -1.63003e-014 -3.81667e-014
lhumerus -31.9059 9.63615 77.2106
lradius 24.17
lwrist -3.45546
lhand -20.9439 -11.972
lfingers 7.12502
lthumb 5.42848 17.9385
rfemur -31.0447 8.57517 21.6416
rtibia 19.5085
rfoot -22.353 -3.25929
rtoes -28.7185
lfemur -30.646 -9.87901 -20.1352
ltibia 21.9702
lfoot -14.9298 3.05467
ltoes -13.3096
94
root -1.26388 19.5594 20.5368 -153.589 0.939832 180.176
lowerback -26.3618 -4.11861 -7.77668
upperback -0.0269844 -2.68796 0.423897
thorax 14.4727 -1.59295 3.75898
lowerneck -6.50071 -8.51611 -0.145661
upperneck 20.6122 -10.9763 0.484459
head 7.42877 -4.88226 -0.681852
rclavicle 7.15625e-015 1.51076e-014
rhumerus -38.2587 -16.1264 -79.2636
rradius 38.0016
rwrist -5.74316
rhand -3.265 -55.1905
rfingers 7.12502
rthumb 22.4596 -83.9045
lclavicle 7.15625e-015 1.51076e-014
lhumerus -31.9106 9.60177 77.0957
lradius 24.2272
lwrist -3.43147
lhand -20.8462 -11.8212
lfingers 7.12502
lthumb 5.5228 18.0868
rfemur -31.5147 8.55429 21.6885
rtibia 20.356
rfoot -22.6179 -3.26682
rtoes -28.7948
lfemur -30.7963 -9.94939 -20.0767
ltibia 22.2462
lfoot -15.079 3.17622
ltoes -13.8321
